<?xml version="1.0" encoding="iso-8859-1"?>
<!-- Generator: Adobe Illustrator 19.0.0, SVG Export Plug-In . SVG Version: 6.00 Build 0)  -->
<svg xmlns="http://www.w3.org/2000/svg" xmlns:xlink="http://www.w3.org/1999/xlink" version="1.1" id="Capa_1" x="0px" y="0px" viewBox="0 0 401.08 401.08" style="enable-background:new 0 0 401.08 401.08;" xml:space="preserve" width="512px" height="512px">
<path id="XMLID_64_" d="M370.866,97.067l-22.439-38.424V9c0-2.771-1.276-5.389-3.461-7.094c-2.186-1.706-5.037-2.309-7.722-1.638  L228.346,27.495c-0.844-0.262-39.222,0.244-55.611,0L63.839,0.268c-2.69-0.671-5.538-0.068-7.722,1.638  C53.932,3.611,52.656,6.228,52.656,9v49.636L30.213,97.068c-1.032,1.767-1.431,3.832-1.131,5.855l41.416,279.894  c0.653,4.414,4.441,7.683,8.903,7.683h63.497c4.971,0,9-4.029,9-9s-4.029-9-9-9H87.167L47.351,103.415l14.886-25.491l65.686,49.588  c3.841,2.901,9.283,2.266,12.353-1.44l18.778-22.664l6.809,7.169l-32.279,218.693c-0.37,2.506,0.333,5.052,1.938,7.013  l50.305,61.496c1.709,2.09,4.267,3.302,6.966,3.302h15.503c2.7,0,5.257-1.212,6.966-3.302l50.304-61.496  c1.604-1.961,2.308-4.507,1.938-7.013l-32.281-218.693l6.808-7.168l18.779,22.663c3.068,3.705,8.512,4.341,12.353,1.44  l65.683-49.586l14.886,25.49l-8.911,60.223h-63.512c-0.426-0.007-4.599,0.017-7.292,3.458c-2.726,3.483-1.702,7.518-1.585,7.941  l8.753,34.694c1.65,6.382,6.567,6.965,8.961,6.983h46.821L313.912,372.5h-55.727c-4.971,0-9,4.029-9,9s4.029,9,9,9h63.493  c4.462,0,8.25-3.269,8.903-7.683l41.416-279.894C372.297,100.9,371.898,98.834,370.866,97.067z M150.507,85.509l-18.604,22.455  L70.656,61.726V20.527l92.935,23.235L150.507,85.509z M182.038,45.092h37.004l13.286,42.393l-10.516,11.071H179.27L168.752,87.48  L182.038,45.092z M249.114,327.964l-45.085,55.116h-6.972l-45.086-55.116l31.203-211.408h8.367v36.825c0,4.971,4.029,9,9,9  s9-4.029,9-9v-36.825h8.367L249.114,327.964z M330.427,61.726l-61.247,46.237l-18.607-22.455l-13.084-41.746l92.938-23.235V61.726z   M339.627,198.716h-42.66l-4.309-17.077h49.496L339.627,198.716z" fill="#363636"/>
<g>
</g>
<g>
</g>
<g>
</g>
<g>
</g>
<g>
</g>
<g>
</g>
<g>
</g>
<g>
</g>
<g>
</g>
<g>
</g>
<g>
</g>
<g>
</g>
<g>
</g>
<g>
</g>
<g>
</g>
</svg>
