<?xml version="1.0" encoding="iso-8859-1"?>
<!-- Generator: Adobe Illustrator 19.0.0, SVG Export Plug-In . SVG Version: 6.00 Build 0)  -->
<svg xmlns="http://www.w3.org/2000/svg" xmlns:xlink="http://www.w3.org/1999/xlink" version="1.1" id="Layer_1" x="0px" y="0px" viewBox="0 0 512 512" style="enable-background:new 0 0 512 512;" xml:space="preserve" width="512px" height="512px">
<g>
	<g>
		<path d="M485.415,423.472v-33.575c0-4.433-3.592-8.025-8.025-8.025h-24.489v-67.706c0-8.042-2.541-15.498-6.851-21.623h40.523    c14.021,0,25.427-11.406,25.427-25.427c0-14.021-11.406-25.427-25.427-25.427h-15.794    c-15.301-95.026-91.813-168.118-185.738-180.766c4.995-6.312,7.987-14.276,7.987-22.93c0-20.417-16.612-37.027-37.028-37.027    c-20.417,0-37.027,16.612-37.027,37.027c0,8.655,2.993,16.619,7.987,22.93C133.033,73.57,56.522,146.662,41.224,241.688H25.427    C11.406,241.688,0,253.094,0,267.115c0,14.02,11.406,25.427,25.427,25.427h30.662c1.929,10.442,9.671,27.52,38.155,39.934    c31.937,13.923,168.927,31.279,220.724,37.47v11.926h-11.597c-4.433,0-8.025,3.592-8.025,8.025v33.575    c-13.438,0.658-24.169,11.797-24.169,25.395v36.739c0,14.021,11.406,25.427,25.427,25.427h187.552    c14.02,0,25.427-11.406,25.427-25.427v-36.739C509.584,435.269,498.853,424.13,485.415,423.472z M255.999,17.015    c11.568,0,20.978,9.411,20.978,20.977c0,11.568-9.411,20.978-20.978,20.978c-11.567-0.001-20.977-9.412-20.977-20.978    C235.022,26.426,244.432,17.015,255.999,17.015z M256,75.019c98.081,0,181.854,71.03,198.519,166.668H57.483    C74.146,146.05,157.918,75.019,256,75.019z M63.614,276.493H25.427c-5.17-0.001-9.377-4.207-9.377-9.377s4.207-9.377,9.377-9.377    h22.731h415.686h22.729c5.17,0,9.377,4.207,9.377,9.377s-4.207,9.377-9.377,9.377H415.23H63.614z M100.656,317.764    c-19.346-8.433-25.907-18.606-28.086-25.222h342.66c11.923,0,21.621,9.699,21.621,21.623v67.706H331.018v-19.055    c0-4.069-3.046-7.494-7.087-7.969C232.41,344.076,125.694,328.678,100.656,317.764z M493.534,485.606    c0,5.17-4.207,9.377-9.377,9.377H296.605c-5.17,0-9.377-4.207-9.377-9.377v-36.739c0-5.17,4.207-9.377,9.377-9.377h6.767h7.734    h31.055c4.433,0,8.025-3.592,8.025-8.025s-3.592-8.025-8.025-8.025h-30.764v-25.518h11.597h121.804h24.568v25.518h-101.88    c-4.433,0-8.025,3.592-8.025,8.025s3.592,8.025,8.025,8.025H477.39h6.767c5.17,0,9.377,4.207,9.377,9.377V485.606z" fill="#363636"/>
	</g>
</g>
<g>
</g>
<g>
</g>
<g>
</g>
<g>
</g>
<g>
</g>
<g>
</g>
<g>
</g>
<g>
</g>
<g>
</g>
<g>
</g>
<g>
</g>
<g>
</g>
<g>
</g>
<g>
</g>
<g>
</g>
</svg>
